<?xml version="1.0" encoding="utf-8"?>
<!-- Generator: Adobe Illustrator 30.8.1, SVG Export Plug-In . SVG Version: 9.03 Build 0)  -->
<svg version="1.0" id="Layer_1" xmlns="http://www.w3.org/2000/svg" xmlns:xlink="http://www.w3.org/1999/xlink" x="0px" y="0px"
	 viewBox="0 0 1024 1024" style="enable-background:new 0 0 1024 1024;" xml:space="preserve">
<g>
	<g>
		<path d="M175.5,287.4c-4.4-11.7-9.1-20.5-13.9-26.4c-4.9-5.9-11.9-10-20.9-12.5c-9.1-2.4-22.4-4.4-40-5.9v-16.9H339v16.9
			c-23.5,2-40.5,3.7-51,5.1c-10.5,1.5-17.5,3.4-20.9,5.9c-3.4,2.4-5.1,6.1-5.1,11c0,3.4,0.8,7.8,2.6,13.2c1.7,5.4,4,12.5,7,21.3
			l123.9,357.2h3.7l89.5-288.2l-30.1-80.7c-4.4-11.7-9.1-20.5-13.9-26.4c-4.9-5.9-11.9-10-20.9-12.5c-9.1-2.4-22.4-4.4-40-5.9v-16.9
			h238.4v16.9c-23.5,1.5-40.5,3.2-51,5.1c-10.5,2-17.2,4.3-20.2,7c-2.9,2.7-4.4,6.7-4.4,12.1c0,6.9,2.7,17.6,8.1,32.3l123.9,357.2
			h3.7l103.4-333.7c4.4-14.2,6.6-25.9,6.6-35.2c0-12.7-5.4-22.4-16.1-29c-10.8-6.6-30.1-11.8-57.9-15.8v-16.9h206.1v16.9
			c-25.9,3.9-45.4,8.8-58.3,14.7c-13,5.9-22.6,13.6-29,23.1c-6.4,9.5-12.7,24.1-19.1,43.6L666.8,797.9H650L506.2,414.3L383.7,797.9
			h-16.9L175.5,287.4z"/>
	</g>
</g>
</svg>
